<svg width="52" height="52" viewBox="0 0 52 52" fill="none" xmlns="http://www.w3.org/2000/svg">
<mask id="path-1-outside-1" maskUnits="userSpaceOnUse" x="0" y="0" width="52" height="52" fill="black">
<rect fill="white" width="52" height="52"/>
<path d="M37.2812 19.0562H14.9818V17.8693H37.2812V19.0562ZM28.7705 38.1854H27.5957V29.2523C27.5976 27.7217 27.0818 26.2354 26.1322 25.035C25.1826 26.2354 24.6668 27.7217 24.6687 29.2523V38.1854H23.4818V29.2523C23.4783 27.3951 24.1233 25.595 25.3055 24.1626C24.0572 23.0448 22.4401 22.4273 20.7644 22.4286H14.9818V21.2432H20.769C22.7504 21.2406 24.6618 21.9758 26.1307 23.3055C27.5981 21.9772 29.507 21.2421 31.4863 21.2432H37.2766V22.4286H31.4863C29.8112 22.4274 28.1946 23.0449 26.9468 24.1626C28.1284 25.5953 28.7733 27.3952 28.7705 29.2523V38.1854ZM25.997 5.99696C14.9681 5.99696 5.99544 14.9635 5.99544 25.997C5.99544 31.3017 8.10274 36.3892 11.8538 40.1402C15.6048 43.8912 20.6922 45.9985 25.997 45.9985C31.3017 45.9985 36.3892 43.8912 40.1402 40.1402C43.8912 36.3892 45.9985 31.3017 45.9985 25.997C45.9985 14.9681 37.0319 5.99696 25.997 5.99696ZM25.997 47.1824C14.3131 47.1824 4.80851 37.6778 4.80851 25.9939C4.80851 14.31 14.3131 4.81003 25.997 4.81003C37.6809 4.81003 47.1854 14.3146 47.1854 25.997C47.1854 37.6793 37.6809 47.1854 25.997 47.1854V47.1824ZM25.997 2.18693C12.8678 2.18693 2.18693 12.8693 2.18693 25.997C2.18693 39.1246 12.8678 49.807 25.997 49.807C39.1261 49.807 49.807 39.1261 49.807 25.997C49.807 12.8678 39.1261 2.18693 25.997 2.18693ZM25.997 50.9939C12.2128 51 1 39.7812 1 25.997C1 12.2128 12.2128 1 25.997 1C39.7812 1 51 12.2128 51 25.997C51 39.7812 39.7796 51 25.997 51"/>
</mask>
<path d="M37.2812 19.0562H14.9818V17.8693H37.2812V19.0562ZM28.7705 38.1854H27.5957V29.2523C27.5976 27.7217 27.0818 26.2354 26.1322 25.035C25.1826 26.2354 24.6668 27.7217 24.6687 29.2523V38.1854H23.4818V29.2523C23.4783 27.3951 24.1233 25.595 25.3055 24.1626C24.0572 23.0448 22.4401 22.4273 20.7644 22.4286H14.9818V21.2432H20.769C22.7504 21.2406 24.6618 21.9758 26.1307 23.3055C27.5981 21.9772 29.507 21.2421 31.4863 21.2432H37.2766V22.4286H31.4863C29.8112 22.4274 28.1946 23.0449 26.9468 24.1626C28.1284 25.5953 28.7733 27.3952 28.7705 29.2523V38.1854ZM25.997 5.99696C14.9681 5.99696 5.99544 14.9635 5.99544 25.997C5.99544 31.3017 8.10274 36.3892 11.8538 40.1402C15.6048 43.8912 20.6922 45.9985 25.997 45.9985C31.3017 45.9985 36.3892 43.8912 40.1402 40.1402C43.8912 36.3892 45.9985 31.3017 45.9985 25.997C45.9985 14.9681 37.0319 5.99696 25.997 5.99696ZM25.997 47.1824C14.3131 47.1824 4.80851 37.6778 4.80851 25.9939C4.80851 14.31 14.3131 4.81003 25.997 4.81003C37.6809 4.81003 47.1854 14.3146 47.1854 25.997C47.1854 37.6793 37.6809 47.1854 25.997 47.1854V47.1824ZM25.997 2.18693C12.8678 2.18693 2.18693 12.8693 2.18693 25.997C2.18693 39.1246 12.8678 49.807 25.997 49.807C39.1261 49.807 49.807 39.1261 49.807 25.997C49.807 12.8678 39.1261 2.18693 25.997 2.18693ZM25.997 50.9939C12.2128 51 1 39.7812 1 25.997C1 12.2128 12.2128 1 25.997 1C39.7812 1 51 12.2128 51 25.997C51 39.7812 39.7796 51 25.997 51" fill="black"/>
<path d="M37.2812 19.0562V19.3062H37.5312V19.0562H37.2812ZM14.9818 19.0562H14.7318V19.3062H14.9818V19.0562ZM14.9818 17.8693V17.6193H14.7318V17.8693H14.9818ZM37.2812 17.8693H37.5312V17.6193H37.2812V17.8693ZM28.7705 38.1854V38.4354H29.0205V38.1854H28.7705ZM27.5957 38.1854H27.3457V38.4354H27.5957V38.1854ZM27.5957 29.2523L27.3457 29.252V29.2523H27.5957ZM26.1322 25.035L26.3283 24.8798L26.1322 24.632L25.9362 24.8798L26.1322 25.035ZM24.6687 29.2523H24.9187L24.9187 29.252L24.6687 29.2523ZM24.6687 38.1854V38.4354H24.9187V38.1854H24.6687ZM23.4818 38.1854H23.2318V38.4354H23.4818V38.1854ZM23.4818 29.2523H23.7318L23.7318 29.2518L23.4818 29.2523ZM25.3055 24.1626L25.4983 24.3217L25.6511 24.1366L25.4722 23.9764L25.3055 24.1626ZM20.7644 22.4286V22.6786L20.7646 22.6786L20.7644 22.4286ZM14.9818 22.4286H14.7318V22.6786H14.9818V22.4286ZM14.9818 21.2432V20.9932H14.7318V21.2432H14.9818ZM20.769 21.2432V21.4932H20.7693L20.769 21.2432ZM26.1307 23.3055L25.9629 23.4908L26.1307 23.6427L26.2985 23.4908L26.1307 23.3055ZM31.4863 21.2432L31.4862 21.4932H31.4863V21.2432ZM37.2766 21.2432H37.5266V20.9932H37.2766V21.2432ZM37.2766 22.4286V22.6786H37.5266V22.4286H37.2766ZM31.4863 22.4286L31.4861 22.6786H31.4863V22.4286ZM26.9468 24.1626L26.78 23.9764L26.6012 24.1365L26.7539 24.3217L26.9468 24.1626ZM28.7705 29.2523L28.5205 29.2519V29.2523H28.7705ZM5.99544 25.997H5.74544H5.99544ZM45.9985 25.997H46.2485H45.9985ZM25.997 47.1824H26.247V46.9324H25.997V47.1824ZM25.997 47.1854H25.747V47.4354H25.997V47.1854ZM37.2812 18.8062H14.9818V19.3062H37.2812V18.8062ZM15.2318 19.0562V17.8693H14.7318V19.0562H15.2318ZM14.9818 18.1193H37.2812V17.6193H14.9818V18.1193ZM37.0312 17.8693V19.0562H37.5312V17.8693H37.0312ZM28.7705 37.9354H27.5957V38.4354H28.7705V37.9354ZM27.8457 38.1854V29.2523H27.3457V38.1854H27.8457ZM27.8457 29.2526C27.8477 27.6656 27.3129 26.1245 26.3283 24.8798L25.9362 25.1901C26.8508 26.3462 27.3476 27.7778 27.3457 29.252L27.8457 29.2526ZM25.9362 24.8798C24.9515 26.1245 24.4168 27.6656 24.4187 29.2526L24.9187 29.252C24.9169 27.7778 25.4137 26.3462 26.3283 25.1901L25.9362 24.8798ZM24.4187 29.2523V38.1854H24.9187V29.2523H24.4187ZM24.6687 37.9354H23.4818V38.4354H24.6687V37.9354ZM23.7318 38.1854V29.2523H23.2318V38.1854H23.7318ZM23.7318 29.2518C23.7284 27.4529 24.3532 25.7092 25.4983 24.3217L25.1127 24.0035C23.8934 25.4808 23.2282 27.3373 23.2318 29.2527L23.7318 29.2518ZM25.4722 23.9764C24.178 22.8175 22.5015 22.1772 20.7642 22.1786L20.7646 22.6786C22.3787 22.6773 23.9363 23.2721 25.1387 24.3489L25.4722 23.9764ZM20.7644 22.1786H14.9818V22.6786H20.7644V22.1786ZM15.2318 22.4286V21.2432H14.7318V22.4286H15.2318ZM14.9818 21.4932H20.769V20.9932H14.9818V21.4932ZM20.7693 21.4932C22.6886 21.4907 24.54 22.2028 25.9629 23.4908L26.2985 23.1201C24.7835 21.7488 22.8122 20.9905 20.7687 20.9932L20.7693 21.4932ZM26.2985 23.4908C27.7199 22.2042 29.569 21.4921 31.4862 21.4932L31.4865 20.9932C29.4451 20.9921 27.4763 21.7502 25.9629 23.1201L26.2985 23.4908ZM31.4863 21.4932H37.2766V20.9932H31.4863V21.4932ZM37.0266 21.2432V22.4286H37.5266V21.2432H37.0266ZM37.2766 22.1786H31.4863V22.6786H37.2766V22.1786ZM31.4865 22.1786C29.7497 22.1773 28.0737 22.8176 26.78 23.9764L27.1136 24.3488C28.3155 23.2722 29.8726 22.6774 31.4861 22.6786L31.4865 22.1786ZM26.7539 24.3217C27.8985 25.7095 28.5233 27.453 28.5205 29.2519L29.0205 29.2527C29.0234 27.3374 28.3583 25.4811 27.1397 24.0035L26.7539 24.3217ZM28.5205 29.2523V38.1854H29.0205V29.2523H28.5205ZM25.997 5.74696C14.8301 5.74696 5.74544 14.8254 5.74544 25.997H6.24544C6.24544 15.1017 15.1061 6.24696 25.997 6.24696V5.74696ZM5.74544 25.997C5.74544 31.368 7.87908 36.5191 11.677 40.3169L12.0305 39.9634C8.3264 36.2593 6.24544 31.2354 6.24544 25.997H5.74544ZM11.677 40.3169C15.4749 44.1148 20.6259 46.2485 25.997 46.2485V45.7485C20.7585 45.7485 15.7347 43.6675 12.0305 39.9634L11.677 40.3169ZM25.997 46.2485C31.368 46.2485 36.5191 44.1148 40.317 40.3169L39.9634 39.9634C36.2593 43.6675 31.2354 45.7485 25.997 45.7485V46.2485ZM40.317 40.3169C44.1148 36.5191 46.2485 31.368 46.2485 25.997H45.7485C45.7485 31.2354 43.6675 36.2593 39.9634 39.9634L40.317 40.3169ZM46.2485 25.997C46.2485 14.83 37.17 5.74696 25.997 5.74696V6.24696C36.8938 6.24696 45.7485 15.1061 45.7485 25.997H46.2485ZM25.997 46.9324C14.4511 46.9324 5.05851 37.5397 5.05851 25.9939H4.55851C4.55851 37.8159 14.175 47.4324 25.997 47.4324V46.9324ZM5.05851 25.9939C5.05851 14.4482 14.4511 5.06003 25.997 5.06003V4.56003C14.1751 4.56003 4.55851 14.1719 4.55851 25.9939H5.05851ZM25.997 5.06003C37.5428 5.06003 46.9354 14.4527 46.9354 25.997H47.4354C47.4354 14.1765 37.8189 4.56003 25.997 4.56003V5.06003ZM46.9354 25.997C46.9354 37.5413 37.5428 46.9354 25.997 46.9354V47.4354C37.8189 47.4354 47.4354 37.8174 47.4354 25.997H46.9354ZM26.247 47.1854V47.1824H25.747V47.1854H26.247ZM25.997 1.93693C12.7297 1.93693 1.93693 12.7312 1.93693 25.997H2.43693C2.43693 13.0074 13.0059 2.43693 25.997 2.43693V1.93693ZM1.93693 25.997C1.93693 39.2627 12.7297 50.057 25.997 50.057V49.557C13.0059 49.557 2.43693 38.9866 2.43693 25.997H1.93693ZM25.997 50.057C39.2642 50.057 50.057 39.2642 50.057 25.997H49.557C49.557 38.9881 38.9881 49.557 25.997 49.557V50.057ZM50.057 25.997C50.057 12.7297 39.2642 1.93693 25.997 1.93693V2.43693C38.9881 2.43693 49.557 13.0059 49.557 25.997H50.057ZM25.9969 50.7439C12.3509 50.7499 1.25 39.6432 1.25 25.997H0.75C0.75 39.9191 12.0746 51.2501 25.9971 51.2439L25.9969 50.7439ZM1.25 25.997C1.25 12.3508 12.3508 1.25 25.997 1.25V0.75C12.0747 0.75 0.75 12.0747 0.75 25.997H1.25ZM25.997 1.25C39.6432 1.25 50.75 12.3509 50.75 25.997H51.25C51.25 12.0746 39.9191 0.75 25.997 0.75V1.25ZM50.75 25.997C50.75 39.6431 39.6416 50.75 25.997 50.75V51.25C39.9177 51.25 51.25 39.9192 51.25 25.997H50.75Z" fill="black" mask="url(#path-1-outside-1)"/>
</svg>
